HIERARCHY
ROOT Hips
{
	OFFSET -3.958830 18.904000 13.208200
	CHANNELS 6 Xposition Yposition Zposition Zrotation Yrotation Xrotation 
	JOINT LHipJoint
	{
		OFFSET 0.000000 0.000000 0.000000
		CHANNELS 3 Zrotation Yrotation Xrotation
		JOINT LeftUpLeg
		{
			OFFSET 1.800000 -1.400000 0.085000
			CHANNELS 3 Zrotation Yrotation Xrotation
			JOINT LeftLeg
			{
				OFFSET 2.215000 -6.000000 0.000000
				CHANNELS 3 Zrotation Yrotation Xrotation
				JOINT LeftFoot
				{
					OFFSET 2.500000 -6.900000 0.000000
					CHANNELS 3 Zrotation Yrotation Xrotation
					JOINT LeftToeBase
					{
						OFFSET 0.200000 -0.500000 1.950000
						CHANNELS 3 Zrotation Yrotation Xrotation
						End Site
						{
							OFFSET 0.000000 0.000000 0.000000
						}
					}
				}
			}
		}
	}
	JOINT RHipJoint
	{
		OFFSET 0.000000 0.000000 0.000000
		CHANNELS 3 Zrotation Yrotation Xrotation
		JOINT RightUpLeg
		{
			OFFSET -1.800000 -1.400000 0.085000
			CHANNELS 3 Zrotation Yrotation Xrotation
			JOINT RightLeg
			{
				OFFSET -2.215000 -6.000000 0.000000
				CHANNELS 3 Zrotation Yrotation Xrotation
				JOINT RightFoot
				{
					OFFSET -2.500000 -6.900000 0.000000
					CHANNELS 3 Zrotation Yrotation Xrotation
					JOINT RightToeBase
					{
						OFFSET -0.200000 -0.500000 1.950000
						CHANNELS 3 Zrotation Yrotation Xrotation
						End Site
						{
							OFFSET 0.000000 0.000000 0.000000
						}
					}
				}
			}
		}
	}
	JOINT LowerBack
	{
		OFFSET 0.000000 0.000000 0.000000
		CHANNELS 3 Zrotation Yrotation Xrotation
		JOINT Spine
		{
			OFFSET -0.087000 1.940000 -0.288900
			CHANNELS 3 Zrotation Yrotation Xrotation
			JOINT Spine1
			{
				OFFSET 0.000000 1.950000 0.060000
				CHANNELS 3 Zrotation Yrotation Xrotation
				JOINT Neck
				{
					OFFSET 0.000000 0.000000 0.000000
					CHANNELS 3 Zrotation Yrotation Xrotation
					JOINT Neck1
					{
						OFFSET 0.000000 1.600000 0.340000
						CHANNELS 3 Zrotation Yrotation Xrotation
						JOINT Head
						{
							OFFSET 0.000000 1.667000 -0.240000
							CHANNELS 3 Zrotation Yrotation Xrotation
							End Site
							{
								OFFSET 0.000000 0.000000 0.000000
							}
						}
					}
				}
				JOINT LeftShoulder
				{
					OFFSET 0.000000 0.000000 0.000000
					CHANNELS 3 Zrotation Yrotation Xrotation
					JOINT LeftArm
					{
						OFFSET 2.700000 1.550000 -0.730000
						CHANNELS 3 Zrotation Yrotation Xrotation
						JOINT LeftForeArm
						{
							OFFSET 5.450000 0.000000 0.000000
							CHANNELS 3 Zrotation Yrotation Xrotation
							JOINT LeftHand
							{
								OFFSET 3.450000 0.000000 0.000000
								CHANNELS 3 Zrotation Yrotation Xrotation
								JOINT LeftHandIndex1
								{
									OFFSET 0.750000 0.000000 0.000000
									CHANNELS 3 Zrotation Yrotation Xrotation
									End Site
									{
										OFFSET 0.000000 0.000000 0.000000
									}
								}
							}
						}
					}
				}
				JOINT RightShoulder
				{
					OFFSET 0.000000 0.000000 0.000000
					CHANNELS 3 Zrotation Yrotation Xrotation
					JOINT RightArm
					{
						OFFSET -2.700000 1.550000 -0.730000
						CHANNELS 3 Zrotation Yrotation Xrotation
						JOINT RightForeArm
						{
							OFFSET -5.450000 0.000000 0.000000
							CHANNELS 3 Zrotation Yrotation Xrotation
							JOINT RightHand
							{
								OFFSET -3.450000 0.000000 0.000000
								CHANNELS 3 Zrotation Yrotation Xrotation
								JOINT RightHandIndex1
								{
									OFFSET -0.750000 0.000000 0.000000
									CHANNELS 3 Zrotation Yrotation Xrotation
									End Site
									{
										OFFSET 0.000000 0.000000 0.000000
									}
								}
							}
						}
					}
				}
			}
		}
	}
}
MOTION
Frames: 8
Frame Time: 0.016667
-1.104350 16.943550 -3.432240 -9.708623 -47.899978 4.846870 -16.187701 10.991489 6.368382 40.030270 -1.291749 -43.472290 -11.146406 16.260642 40.633606 -0.293501 10.048735 0.490935 0.655820 0.704220 0.803630 17.907750 -8.433126 2.346993 -14.750188 4.536313 -30.178175 5.572773 -17.734271 61.390748 -2.043885 -10.163601 0.503817 0.370050 -0.183720 0.539550 -2.202673 -3.535433 -9.602164 -3.782877 7.002735 29.180221 9.121373 7.262369 19.490182 -5.797820 2.051024 -12.971791 -2.311026 6.351497 54.660378 -18.092390 16.773980 -38.798910 6.679154 -38.764881 -0.024320 -25.529711 -51.021856 -3.849320 95.947796 -59.234300 -71.488849 -4.356322 1.426869 0.974040 -0.036090 0.760050 -0.055150 3.349520 40.417448 13.727572 62.825529 41.011108 -13.014653 26.445004 61.423007 2.238563 1.728811 -1.561899 -0.086300 0.328480 0.017060 -0.333780 
-1.185190 16.947910 -3.484310 -10.792685 -48.452879 4.962404 -16.177654 11.103916 6.196824 40.711905 -1.554724 -42.071098 -9.824394 15.499702 40.250163 -0.328719 9.845635 0.574363 0.602910 0.605140 0.789540 17.899474 -8.538817 2.319589 -13.507594 4.296446 -29.468106 5.493956 -17.951137 61.770692 -2.066780 -10.209253 0.503413 0.312290 -0.179130 0.513480 -2.168759 -3.469771 -9.497996 -4.050555 7.126125 29.210071 9.933697 7.478625 18.110170 -5.039234 1.548796 -13.179560 -2.714911 6.476643 55.801111 -17.506530 16.675300 -38.575070 4.369787 -36.963531 1.152477 -24.999837 -48.353998 -4.700423 82.394187 -63.730462 -62.546237 -3.948255 1.246523 1.020340 -0.068150 0.743280 -0.077260 4.970154 38.943441 12.785619 62.686417 37.973919 -12.679479 28.789958 57.623904 3.635996 1.818956 -1.491908 -0.123680 0.338310 0.043640 -0.352420 
-1.252810 16.961270 -3.535700 -11.359912 -49.777634 4.557256 -16.134849 11.326042 5.918848 40.252304 -1.373258 -40.325679 -7.812841 14.681548 40.161795 -0.378506 9.614486 0.661014 0.576790 0.543510 0.758210 17.902718 -8.649884 2.352943 -12.820975 4.596040 -28.604189 5.647876 -17.854393 61.834909 -2.080944 -10.180150 0.530678 0.272650 -0.155880 0.500220 -2.177735 -3.462039 -9.389105 -4.636757 7.218376 29.095475 9.963591 7.626253 17.018176 -4.841290 0.580587 -13.459535 -4.429236 7.610573 56.324855 -15.616560 16.181400 -38.987310 3.363527 -35.359258 1.580777 -25.363163 -43.803507 -8.516852 63.490552 -67.125735 -48.184102 -3.448952 1.191661 1.077040 -0.102640 0.733780 -0.078260 5.977083 38.029920 12.646233 63.245800 35.769864 -11.941476 23.641174 53.698636 1.641648 1.855247 -1.374840 -0.149840 0.367050 0.073510 -0.352240 
-1.320920 16.978610 -3.561350 -11.949109 -50.757822 4.004337 -16.102229 11.605399 5.598846 39.291548 -0.771108 -38.621425 -5.406844 13.850778 40.307335 -0.332424 9.292093 0.755903 0.599980 0.587950 0.747340 17.890488 -8.714409 2.405834 -12.819002 5.069288 -27.002784 7.198401 -18.338946 61.193805 -2.122871 -10.181358 0.536156 0.257660 -0.209720 0.494710 -2.115718 -3.561570 -9.290521 -4.988068 7.490795 28.735016 10.400006 7.744876 16.795108 -4.602504 -0.479059 -13.956053 -6.709227 8.671166 56.397557 -14.863580 15.491510 -39.656440 2.676616 -34.006044 2.218784 -26.017000 -40.641208 -10.281972 44.361135 -63.424412 -32.526337 -3.244433 1.878338 1.065690 -0.163390 0.770830 -0.065950 6.472185 37.562702 12.857663 62.519320 33.405834 -11.683908 14.885767 50.629638 -1.296926 1.883147 -1.298035 -0.088990 0.329290 0.038550 -0.315940 
-1.387840 16.986750 -3.590480 -12.212259 -51.493698 3.677580 -16.092699 11.760234 5.308701 38.433584 0.158796 -37.324737 -3.510229 13.189557 39.788671 -0.291909 8.998688 0.859835 0.609150 0.639400 0.702590 17.880853 -8.702306 2.509990 -13.448559 5.756469 -25.829202 9.730217 -19.280204 60.126159 -2.159689 -10.273571 0.546231 0.254110 -0.198250 0.491310 -2.073418 -3.577235 -9.207463 -5.322030 7.955259 27.512709 10.638094 8.008061 17.141952 -4.382897 -1.367976 -14.119724 -8.287872 9.277699 54.609771 -14.369600 14.741630 -39.393000 2.899479 -32.618995 3.023044 -27.570002 -39.077312 -9.744091 36.937027 -56.991834 -25.039814 -3.216370 2.185700 1.013640 -0.164740 0.774260 -0.032380 5.998035 37.130860 12.717201 61.418856 31.751036 -10.467435 6.581883 45.750084 -3.440774 1.883216 -1.221843 -0.037990 0.327870 0.018480 -0.260550 
-1.451940 17.004350 -3.603970 -12.290915 -51.255541 3.017930 -16.066547 11.963088 5.083950 37.539018 0.823481 -36.413392 -1.800043 12.432662 39.092479 -0.166168 8.646275 1.021440 0.616620 0.696190 0.611540 17.870739 -8.731444 2.552843 -14.164321 5.942131 -24.018524 12.186134 -20.172207 58.621177 -2.180127 -10.326209 0.590103 0.238140 -0.161270 0.486800 -2.013516 -3.699769 -9.147030 -5.386920 8.015857 26.735600 10.921938 7.846026 17.389415 -4.241795 -2.594871 -14.930797 -10.919451 9.974409 52.564135 -12.439180 13.834270 -36.813580 1.702651 -32.244320 4.093913 -28.027892 -37.027920 -9.569462 34.219231 -52.567950 -21.642420 -3.185102 2.403669 0.912340 -0.162200 0.762130 0.055200 7.208381 37.469468 13.185295 58.277453 28.256844 -10.130029 0.112920 41.064704 -4.502650 1.906579 -1.216459 0.037820 0.300570 -0.039500 -0.158510 
-1.528160 17.020120 -3.605900 -12.961633 -50.786058 2.621164 -15.998120 12.071777 4.880950 37.143203 1.801530 -35.240142 -0.240903 11.779062 38.159846 -0.094073 8.372405 1.137178 0.648010 0.754550 0.556750 17.902672 -8.833256 2.599289 -14.583356 6.202271 -21.554855 15.119406 -20.988613 56.353922 -2.189734 -10.305819 0.622021 0.249760 -0.129950 0.493390 -2.182044 -3.571888 -9.063371 -3.913559 7.539468 26.200044 9.805101 7.813919 17.709997 -4.289938 -3.907043 -14.859213 -13.538454 10.470977 49.053216 -9.978580 12.550350 -35.151850 0.865818 -30.764114 4.786816 -29.611283 -35.328668 -9.085442 32.628287 -50.834717 -20.283481 -3.169396 2.549797 0.837790 -0.161580 0.742280 0.116460 8.030921 36.599891 13.079430 56.319122 25.463587 -8.792210 -5.358344 35.559158 -4.957380 1.959403 -1.230581 0.094510 0.274970 -0.080250 -0.085780 
-1.602450 17.044010 -3.590020 -12.950448 -50.258723 1.741887 -15.943992 12.218769 4.688201 36.582141 2.434383 -34.040168 0.702714 11.266920 37.070495 -0.060325 8.134668 1.240942 0.645460 0.762030 0.504780 17.919638 -8.949668 2.581075 -15.285416 6.036288 -19.004601 17.289372 -21.450516 54.142539 -2.157145 -10.233734 0.661440 0.250510 -0.091860 0.485120 -2.249093 -3.545883 -8.944850 -3.044084 7.239470 25.206769 8.881759 7.785208 18.130894 -4.050521 -4.914418 -14.852609 -15.513472 10.721210 46.153482 -8.567010 11.569520 -33.122200 0.267399 -29.621153 5.359071 -31.267538 -34.694369 -8.288541 32.887929 -48.992478 -19.910563 -3.186473 2.630218 0.774690 -0.145730 0.699150 0.150850 8.072509 35.952029 13.132348 53.816999 22.812317 -7.044203 -8.839575 29.767230 -4.625307 2.024119 -1.252966 0.114240 0.258620 -0.095300 -0.042030 
